<?xml version="1.0" encoding="UTF-8" standalone="no"?>
<!-- Created with Inkscape (http://www.inkscape.org/) -->

<svg
   xmlns:dc="http://purl.org/dc/elements/1.1/"
   xmlns:cc="http://creativecommons.org/ns#"
   xmlns:rdf="http://www.w3.org/1999/02/22-rdf-syntax-ns#"
   xmlns:svg="http://www.w3.org/2000/svg"
   xmlns="http://www.w3.org/2000/svg"
   xmlns:sodipodi="http://sodipodi.sourceforge.net/DTD/sodipodi-0.dtd"
   xmlns:inkscape="http://www.inkscape.org/namespaces/inkscape"
   width="102mm"
   height="144mm"
   viewBox="0 0 361.41735 510.23622"
   id="svg4746"
   version="1.1"
   inkscape:version="0.91 r13725"
   sodipodi:docname="eggspiral.svg">
  <defs
     id="defs4748">
    <marker
       style="overflow:visible"
       refY="0"
       refX="0"
       orient="auto"
       id="DistanceX">
      <path
         id="path4815"
         style="stroke:#000000;stroke-width:0.5"
         d="M 3,-3 -3,3 M 0,-5 0,5"
         inkscape:connector-curvature="0" />
    </marker>
    <pattern
       y="0"
       x="0"
       width="8"
       patternUnits="userSpaceOnUse"
       id="Hatch"
       height="8">
      <path
         id="path4818"
         stroke-width="0.25"
         stroke="#000000"
         linecap="square"
         d="M8 4 l-4,4" />
      <path
         id="path4820"
         stroke-width="0.25"
         stroke="#000000"
         linecap="square"
         d="M6 2 l-4,4" />
      <path
         id="path4822"
         stroke-width="0.25"
         stroke="#000000"
         linecap="square"
         d="M4 0 l-4,4" />
    </pattern>
    <symbol
       id="*MODEL_SPACE" />
    <symbol
       id="*PAPER_SPACE" />
  </defs>
  <sodipodi:namedview
     id="base"
     pagecolor="#ffffff"
     bordercolor="#666666"
     borderopacity="1.0"
     inkscape:pageopacity="0.0"
     inkscape:pageshadow="2"
     inkscape:zoom="1.979899"
     inkscape:cx="254.84418"
     inkscape:cy="240.79996"
     inkscape:document-units="px"
     inkscape:current-layer="layer1"
     showgrid="false"
     inkscape:window-width="1920"
     inkscape:window-height="1151"
     inkscape:window-x="0"
     inkscape:window-y="0"
     inkscape:window-maximized="1"
     fit-margin-top="0"
     fit-margin-left="0"
     fit-margin-right="0"
     fit-margin-bottom="0" />
  <metadata
     id="metadata4751">
    <rdf:RDF>
      <cc:Work
         rdf:about="">
        <dc:format>image/svg+xml</dc:format>
        <dc:type
           rdf:resource="http://purl.org/dc/dcmitype/StillImage" />
        <dc:title></dc:title>
      </cc:Work>
    </rdf:RDF>
  </metadata>
  <g
     inkscape:label="Layer 1"
     inkscape:groupmode="layer"
     id="layer1"
     transform="translate(-194.39332,-266.99457)">
    <path
       inkscape:connector-curvature="0"
       d="m 531.08552,640.91245 c 0.48398,-1.2373 -0.26756,-2.4785 -2.2484,-3.7303 -3.60013,-2.275 -11.18861,-4.5409 -22.28285,-6.8377 -11.25292,-2.3297 -25.89064,-4.6461 -43.04335,-6.9906 -17.38036,-2.3755 -37.00175,-4.734 -57.72845,-7.1176 -10.08142,-1.1594 -20.35442,-2.3167 -30.68048,-3.4768"
       style="fill:none;stroke:#000000"
       id="path4934" />
    <path
       inkscape:connector-curvature="0"
       d="m 375.10199,497.59625 c -18.22934,-1.7659 -36.32933,-3.5169 -53.64484,-5.2754 -17.27229,-1.7541 -33.55418,-3.4945 -48.25391,-5.2433 -18.42912,-2.1925 -34.0532,-4.3608 -45.97232,-6.5489 -11.86622,-2.1783 -19.83138,-4.3349 -23.42473,-6.5134 -3.57484,-2.1674 -2.75339,-4.31539 2.44007,-6.48787 5.16285,-2.15967 14.54757,-4.30253 27.64422,-6.47252 3.01665,-0.49983 6.21678,-0.9989 9.58903,-1.49776"
       style="fill:none;stroke:#000000"
       id="path4892" />
    <path
       inkscape:connector-curvature="0"
       d="m 552.25585,524.96635 c 6.3e-4,-0.078 -0.004,-0.1553 -0.0134,-0.233 -0.2848,-2.3176 -5.09483,-4.6 -14.15731,-6.8922 -9.05781,-2.2911 -22.1896,-4.5485 -38.65146,-6.8171 -16.4415,-2.2657 -35.88876,-4.4996 -57.23947,-6.7463 -21.30923,-2.2422 -44.10471,-4.4546 -67.09225,-6.6815"
       style="fill:none;stroke:#000000"
       id="path4908" />
    <path
       inkscape:connector-curvature="0"
       d="m 536.3151,418.21642 c -0.0511,-0.13809 -0.11744,-0.27638 -0.19919,-0.41488 -1.32608,-2.24656 -6.67279,-4.50603 -15.78796,-6.83241 -8.96789,-2.2888 -21.4128,-4.59875 -36.67374,-6.98897 -14.97169,-2.34491 -32.36853,-4.72231 -51.23211,-7.19982 -18.42455,-2.41984 -37.89952,-4.88877 -57.32011,-7.49013"
       style="fill:none;stroke:#000000"
       id="path4888" />
    <path
       inkscape:connector-curvature="0"
       d="m 375.10199,612.75945 c -15.05629,-1.6914 -30.10511,-3.3753 -44.72694,-5.0665 -14.7349,-1.7042 -28.89696,-3.3998 -42.09528,-5.1018 -19.07474,-2.4597 -35.82161,-4.8926 -49.31198,-7.3431 -13.61357,-2.4729 -23.64659,-4.9162 -29.55808,-7.3748 -5.95927,-2.4785 -7.61512,-4.925 -4.90314,-7.3846 2.73112,-2.477 9.83808,-4.9199 20.89141,-7.3742 5.51812,-1.2252 11.96653,-2.4416 19.2395,-3.6548"
       style="fill:none;stroke:#000000"
       id="path4910" />
    <path
       inkscape:connector-curvature="0"
       d="m 375.10199,389.29021 c -13.75432,-1.84236 -27.32024,-3.73024 -40.27067,-5.70608 -12.73448,-1.94289 -24.75232,-3.95083 -35.63806,-6.08796 -14.19269,-2.78635 -25.60835,-5.6172 -34.04435,-8.71236 -7.19777,-2.64086 -11.48979,-5.22654 -13.82036,-7.78913 -1.32643,-1.45849 -2.00862,-2.90024 -2.22059,-4.30694 -0.0909,-0.60292 -0.113,-1.33293 0.03,-2.14854 0.0839,-0.47845 0.24142,-1.07915 0.53439,-1.74671 0.1005,-0.22901 0.21991,-0.47298 0.36203,-0.72832 0.0896,-0.16087 0.18667,-0.32367 0.29198,-0.48797 0.10161,-0.1585 0.20798,-0.31394 0.31888,-0.46637 0.1402,-0.19268 0.28327,-0.37455 0.42688,-0.54577 0.35147,-0.41903 0.71734,-0.78754 1.07544,-1.10885 0.70782,-0.63509 1.49553,-1.18483 2.34156,-1.66264 2.77035,-1.56461 6.6629,-2.65749 12.69829,-3.39078 9.39238,-1.14115 20.99471,-1.27652 34.98095,-1.20658 13.55127,0.0678 28.8167,0.42566 45.07105,0.94684 9.12131,0.29247 18.46237,0.63723 27.86258,1.0255"
       style="fill:none;stroke:#000000"
       id="path4828" />
    <path
       inkscape:connector-curvature="0"
       d="m 375.10199,654.93505 c 13.75432,1.8424 27.32024,3.7303 40.27067,5.7061 12.73448,1.9429 24.75232,3.9509 35.63806,6.088 14.19269,2.7863 25.60835,5.6172 34.04435,8.7123 7.19777,2.6409 11.48979,5.2266 13.82036,7.7892 1.32643,1.4585 2.00862,2.9002 2.22059,4.3069 0.0909,0.6029 0.113,1.3329 -0.03,2.1486 -0.0839,0.4784 -0.24142,1.0791 -0.53439,1.7467 -0.1005,0.229 -0.21991,0.473 -0.36203,0.7283 -0.0896,0.1609 -0.18667,0.3237 -0.29198,0.488 -0.10161,0.1585 -0.20798,0.3139 -0.31888,0.4663 -0.1402,0.1927 -0.28327,0.3746 -0.42688,0.5458 -0.35147,0.419 -0.71734,0.7875 -1.07544,1.1088 -0.70782,0.6351 -1.49553,1.1849 -2.34156,1.6627 -2.77035,1.5646 -6.6629,2.6575 -12.69829,3.3908 -9.39238,1.1411 -20.99471,1.2765 -34.98095,1.2065 -13.55127,-0.068 -28.8167,-0.4256 -45.07105,-0.9468 -9.12131,-0.2925 -18.46237,-0.6372 -27.86258,-1.0255"
       style="fill:none;stroke:#000000"
       id="path4830" />
    <path
       inkscape:connector-curvature="0"
       d="m 509.12099,358.24399 c 0.0169,0.0276 0.0324,0.0552 0.0467,0.0828 0.24286,0.46964 0.11266,0.94387 -0.383,1.42332"
       style="fill:none;stroke:#000000"
       id="path4836" />
    <path
       inkscape:connector-curvature="0"
       d="m 241.08299,685.98135 c -0.0169,-0.028 -0.0324,-0.055 -0.0467,-0.083 -0.24286,-0.4696 -0.11266,-0.9438 0.383,-1.4233"
       style="fill:none;stroke:#000000"
       id="path4848" />
    <path
       inkscape:connector-curvature="0"
       d="m 505.56656,474.76565 c -1.21456,1.6266 -2.36595,3.4973 -3.32265,5.5248 -1.40376,2.975 -2.41409,6.343 -2.85704,9.7841 -0.48723,3.785 -0.29648,7.7416 0.5364,11.4334 0.83789,3.714 2.3539,7.2463 4.1984,10.1749"
       style="fill:none;stroke:#000000"
       id="path4850" />
    <path
       inkscape:connector-curvature="0"
       d="m 508.78473,359.75014 c -1.58609,1.53421 -3.29795,3.56071 -4.77027,5.93056 -1.53035,2.46326 -2.82922,5.33759 -3.68078,8.37895 -0.9858,3.52076 -1.391,7.33867 -1.14268,11.05314 0.25889,3.8725 1.23891,7.72161 2.73742,11.09959 1.47738,3.33037 3.50475,6.27846 5.51141,8.48643 1.77703,1.9553 3.54505,3.37193 4.84257,4.26683 0.10008,0.069 0.19761,0.13528 0.29255,0.19886"
       style="fill:none;stroke:#000000"
       id="path4852" />
    <path
       inkscape:connector-curvature="0"
       d="m 243.47951,459.55708 c 1.01578,-1.20287 2.02058,-2.57539 2.9276,-4.07864 1.53407,-2.54248 2.81419,-5.50198 3.62417,-8.62009 0.92546,-3.56266 1.25527,-7.40729 0.92991,-11.12799 -0.33804,-3.86557 -1.39644,-7.68653 -2.95332,-11.01582 -1.52948,-3.27072 -3.58651,-6.14047 -5.58235,-8.26535 -1.58764,-1.69029 -3.14107,-2.94353 -4.34094,-3.78669"
       style="fill:none;stroke:#000000"
       id="path4854" />
    <path
       inkscape:connector-curvature="0"
       d="m 244.63742,569.45965 c 1.21456,-1.6266 2.36595,-3.4973 3.32265,-5.5248 1.40376,-2.975 2.41409,-6.343 2.85704,-9.784 0.48723,-3.7851 0.29648,-7.7417 -0.5364,-11.4335 -0.83789,-3.714 -2.3539,-7.2463 -4.1984,-10.1749"
       style="fill:none;stroke:#000000"
       id="path4856" />
    <path
       inkscape:connector-curvature="0"
       d="m 241.41925,684.47515 c 1.58609,-1.5342 3.29795,-3.5607 4.77027,-5.9305 1.53035,-2.4633 2.82922,-5.3376 3.68078,-8.379 0.9858,-3.5207 1.391,-7.3387 1.14268,-11.0531 -0.25889,-3.8725 -1.23891,-7.7216 -2.73742,-11.0996 -1.47738,-3.3304 -3.50475,-6.2785 -5.51141,-8.4865 -1.77703,-1.9553 -3.54505,-3.3719 -4.84257,-4.2668 -0.10008,-0.069 -0.19761,-0.1353 -0.29255,-0.1988"
       style="fill:none;stroke:#000000"
       id="path4858" />
    <path
       inkscape:connector-curvature="0"
       d="m 375.10199,772.66235 c 12.71903,0 25.43761,-1.9445 37.86278,-5.7887 12.42517,-3.8442 24.55605,-9.5878 36.11323,-17.0985 11.55717,-7.5107 22.53982,-16.788 32.69497,-27.6182 10.15515,-10.8302 19.48208,-23.2125 27.76596,-36.8618 8.28389,-13.6492 15.52413,-28.5644 21.55396,-44.402"
       style="fill:none;stroke:#000000"
       id="path4860" />
    <path
       inkscape:connector-curvature="0"
       d="m 548.5624,573.08415 c 0.4649,-3.1641 0.8865,-6.341 1.26449,-9.5282 0.37799,-3.1872 0.71237,-6.3848 1.00289,-9.5903 0.29052,-3.2055 0.53718,-6.419 0.7398,-9.638 0.20261,-3.219 0.36118,-6.4436 0.47559,-9.6712 0.11441,-3.2277 0.18465,-6.4585 0.21068,-9.6901"
       style="fill:none;stroke:#000000"
       id="path4862" />
    <path
       inkscape:connector-curvature="0"
       d="m 509.12099,358.24399 c -6.62705,-10.83979 -13.91317,-20.87343 -21.75159,-29.95389 -7.83842,-9.08046 -16.22891,-17.20748 -25.04852,-24.26196 -8.8196,-7.05448 -18.06806,-13.03621 -27.60984,-17.85753 -9.54179,-4.82133 -19.37662,-8.48211 -29.36038,-10.92869 -9.98375,-2.44659 -20.11614,-3.67891 -30.24867,-3.67891"
       style="fill:none;stroke:#000000"
       id="path4864" />
    <path
       inkscape:connector-curvature="0"
       d="m 546.92941,461.07331 c -0.52108,-2.93371 -1.07973,-5.85407 -1.67559,-8.75917 -0.59585,-2.9051 -1.22891,-5.79493 -1.89876,-8.66762 -0.66985,-2.87268 -1.37649,-5.7282 -2.11945,-8.5647 -0.74296,-2.83649 -1.52225,-5.65395 -2.33736,-8.45054 -0.8151,-2.79659 -1.66602,-5.5723 -2.55219,-8.32531"
       style="fill:none;stroke:#000000"
       id="path4866" />
    <path
       inkscape:connector-curvature="0"
       d="m 375.10199,772.66235 c -10.13253,0 -20.26492,-1.2324 -30.24867,-3.679 -9.98376,-2.4465 -19.81859,-6.1073 -29.36037,-10.9286 -9.54179,-4.8214 -18.79025,-10.8031 -27.60985,-17.8576 -8.81961,-7.0545 -17.2101,-15.1815 -25.04852,-24.2619 -7.83842,-9.0805 -15.12454,-19.1141 -21.75159,-29.9539"
       style="fill:none;stroke:#000000"
       id="path4868" />
    <path
       inkscape:connector-curvature="0"
       d="m 213.85792,625.91935 c -0.88617,-2.753 -1.73709,-5.5287 -2.55219,-8.3253 -0.81511,-2.7966 -1.5944,-5.6141 -2.33736,-8.4506 -0.74296,-2.8365 -1.4496,-5.692 -2.11945,-8.5647 -0.66985,-2.8726 -1.30291,-5.7625 -1.89876,-8.6676 -0.59586,-2.9051 -1.15451,-5.8254 -1.67559,-8.7592"
       style="fill:none;stroke:#000000"
       id="path4870" />
    <path
       inkscape:connector-curvature="0"
       d="m 219.11109,403.33217 c 6.02983,-15.83761 13.27007,-30.7528 21.55396,-44.40206 8.28388,-13.64925 17.61081,-26.03157 27.76596,-36.86177 10.15515,-10.8302 21.1378,-20.1075 32.69497,-27.61821 11.55718,-7.51071 23.68806,-13.2543 36.11323,-17.09847 12.42518,-3.84417 25.14375,-5.78865 37.86278,-5.78865"
       style="fill:none;stroke:#000000"
       id="path4872" />
    <path
       inkscape:connector-curvature="0"
       d="m 197.94813,519.25895 c 0.026,-3.2315 0.0963,-6.4624 0.21068,-9.69 0.11441,-3.2277 0.27298,-6.4523 0.47559,-9.6713 0.20262,-3.219 0.44928,-6.4325 0.7398,-9.638 0.29052,-3.2055 0.6249,-6.4031 1.00289,-9.5903 0.37799,-3.1872 0.79959,-6.3641 1.26449,-9.5282"
       style="fill:none;stroke:#000000"
       id="path4874" />
    <path
       inkscape:connector-curvature="0"
       d="m 375.10199,378.35817 c -10.14306,1.01602 -20.31004,2.03828 -30.33544,3.07151 -4.80163,0.49486 -9.55821,0.99094 -14.25272,1.48878"
       style="fill:none;stroke:#000000;stroke-width:1;stroke-miterlimit:4;stroke-dasharray:24, 24;stroke-dashoffset:0"
       id="path4876" />
    <path
       inkscape:connector-curvature="0"
       d="m 219.11109,403.33216 c -0.0311,0.0817 -0.0568,0.16336 -0.0771,0.24511 -0.55821,2.24336 2.94298,4.47984 10.24886,6.74874 7.41415,2.30251 18.5996,4.5939 32.87513,6.91477 14.47266,2.35293 31.83665,4.69072 51.07528,7.05515 19.48419,2.3946 40.50934,4.77033 61.86878,7.1699"
       style="fill:none;stroke:#000000"
       id="path4878" />
    <path
       inkscape:connector-curvature="0"
       d="m 330.51383,382.91846 c -5.20738,0.55222 -10.33839,1.10659 -15.36981,1.66383 -18.18171,2.01366 -34.78948,4.0349 -48.91611,6.09782 -14.37303,2.09889 -25.89601,4.20024 -33.96557,6.34006 -7.90028,2.09495 -12.34246,4.1877 -13.15125,6.31199"
       style="fill:none;stroke:#000000;stroke-width:1;stroke-miterlimit:4;stroke-dasharray:24, 24;stroke-dashoffset:0"
       id="path4880" />
    <path
       inkscape:connector-curvature="0"
       d="m 375.10199,345.16755 c 16.80167,0.69399 33.52334,1.51424 49.24541,2.4401 15.85173,0.9335 30.37002,1.95704 42.76853,3.06837 12.57398,1.12705 22.71872,2.32281 29.9065,3.59504 7.30575,1.29311 11.41329,2.64024 12.1453,4.05576 0.24504,0.47385 0.11041,0.95235 -0.39631,1.43618"
       style="fill:none;stroke:#000000"
       id="path4882" />
    <path
       inkscape:connector-curvature="0"
       d="m 508.77142,359.763 c -1.0339,0.98719 -3.61686,1.99656 -7.68439,3.03394 -6.17357,1.57449 -15.64323,3.18291 -27.82305,4.84841 -12.41001,1.69698 -27.38704,3.42025 -44.04863,5.19624 -16.97637,1.80953 -35.36566,3.63865 -54.11336,5.51658"
       style="fill:none;stroke:#000000;stroke-width:1;stroke-miterlimit:4;stroke-dasharray:24, 24;stroke-dashoffset:0"
       id="path4884" />
    <path
       inkscape:connector-curvature="0"
       d="m 375.10199,444.99752 c 12.20745,-1.2098 24.34773,-2.42044 36.20224,-3.63987 8.9291,-0.9185 17.6556,-1.83785 26.08935,-2.76153"
       style="fill:none;stroke:#000000;stroke-width:1;stroke-miterlimit:4;stroke-dasharray:24, 24;stroke-dashoffset:0"
       id="path4886" />
    <path
       inkscape:connector-curvature="0"
       d="m 437.39358,438.59612 c 2.70594,-0.29636 5.38174,-0.59316 8.02443,-0.89053 19.32427,-2.17446 36.58869,-4.34622 50.78833,-6.56219 14.04155,-2.19129 24.81476,-4.38412 31.66942,-6.62693 6.35766,-2.0802 9.22827,-4.16621 8.43934,-6.30005"
       style="fill:none;stroke:#000000;stroke-width:1;stroke-miterlimit:4;stroke-dasharray:24, 24;stroke-dashoffset:0"
       id="path4890" />
    <path
       inkscape:connector-curvature="0"
       d="m 243.47951,459.5571 c 11.17068,-1.65248 24.22991,-3.30265 38.76386,-4.97055 18.77985,-2.15516 39.66059,-4.29896 61.46773,-6.47605 10.37094,-1.03537 20.88068,-2.07138 31.39089,-3.11298"
       style="fill:none;stroke:#000000;stroke-width:1;stroke-miterlimit:4;stroke-dasharray:24, 24;stroke-dashoffset:0"
       id="path4894" />
    <path
       inkscape:connector-curvature="0"
       d="m 375.10199,431.46583 c 15.0563,1.69146 30.10511,3.37538 44.72694,5.06654 14.7349,1.70423 28.89697,3.39983 42.09528,5.10176 19.07474,2.45969 35.82161,4.89262 49.31198,7.34313 13.61357,2.4729 23.64659,4.91625 29.55808,7.37485 5.95927,2.47848 7.61512,4.92495 4.90314,7.38458 -2.73112,2.47699 -9.83808,4.91991 -20.89141,7.37416 -5.51812,1.2252 -11.96653,2.4417 -19.2395,3.6549"
       style="fill:none;stroke:#000000;stroke-width:1;stroke-miterlimit:4;stroke-dasharray:none;stroke-dashoffset:0"
       id="path4896" />
    <path
       inkscape:connector-curvature="0"
       d="m 505.5665,474.76575 c -7.38376,1.2316 -15.61738,2.46 -24.59024,3.6908 -15.74257,2.1595 -33.50858,4.2925 -52.50592,6.4302 -10.21574,1.1495 -20.7248,2.2933 -31.39179,3.4363 -7.28437,0.7805 -14.62454,1.5587 -21.97656,2.3361"
       style="fill:none;stroke:#000000;stroke-width:1;stroke-miterlimit:4;stroke-dasharray:24, 24;stroke-dashoffset:0"
       id="path4898" />
    <path
       inkscape:connector-curvature="0"
       d="m 375.10199,490.65915 c -11.44148,1.2098 -22.86467,2.4128 -34.10531,3.6147"
       style="fill:none;stroke:#000000;stroke-width:1;stroke-miterlimit:4;stroke-dasharray:24, 24;stroke-dashoffset:0"
       id="path4900" />
    <path
       inkscape:connector-curvature="0"
       d="m 197.94813,519.25895 c -6.3e-4,0.078 0.004,0.1553 0.0134,0.233 0.2848,2.3176 5.09483,4.6 14.15731,6.8922 9.05781,2.2911 22.1896,4.5485 38.65146,6.8171 16.4415,2.2657 35.88876,4.4996 57.23947,6.7463 21.30923,2.2422 44.10471,4.4546 67.09225,6.6815"
       style="fill:none;stroke:#000000"
       id="path4902" />
    <path
       inkscape:connector-curvature="0"
       d="m 340.99668,494.27385 c -0.74747,0.08 -1.49414,0.1598 -2.23995,0.2397 -11.98124,1.2838 -23.67624,2.5598 -34.89411,3.8349 -21.09312,2.3977 -40.18769,4.7575 -56.20121,7.1249 -16.04224,2.3717 -28.68332,4.7061 -37.20777,7.0485 -8.24684,2.2661 -12.48748,4.4982 -12.50551,6.7371"
       style="fill:none;stroke:#000000;stroke-width:1;stroke-miterlimit:4;stroke-dasharray:24, 24;stroke-dashoffset:0"
       id="path4904" />
    <path
       inkscape:connector-curvature="0"
       d="m 375.10199,553.56615 c 11.44147,-1.2098 22.86465,-2.4128 34.10528,-3.6146"
       style="fill:none;stroke:#000000;stroke-width:1;stroke-miterlimit:4;stroke-dasharray:24, 24;stroke-dashoffset:0"
       id="path4906" />
    <path
       inkscape:connector-curvature="0"
       d="m 244.63748,569.45965 c 7.38376,-1.2317 15.61738,-2.4601 24.59024,-3.6909 15.74257,-2.1595 33.50858,-4.2925 52.50592,-6.4302 10.21574,-1.1495 20.7248,-2.2933 31.39179,-3.4362 7.28437,-0.7806 14.62454,-1.5588 21.97656,-2.3362"
       style="fill:none;stroke:#000000;stroke-width:1;stroke-miterlimit:4;stroke-dasharray:24, 24;stroke-dashoffset:0"
       id="path4912" />
    <path
       inkscape:connector-curvature="0"
       d="m 375.10199,546.62905 c 11.4653,1.1106 22.88837,2.2163 34.10528,3.3225"
       style="fill:none;stroke:#000000;stroke-width:1;stroke-miterlimit:4;stroke-dasharray:none;stroke-dashoffset:0"
       id="path4914" />
    <path
       inkscape:connector-curvature="0"
       d="m 409.20727,549.95155 c 2.99307,0.2951 5.97147,0.5903 8.93207,0.8857 14.02867,1.3995 27.54979,2.7914 40.25069,4.1872 19.99874,2.1976 37.64988,4.3704 51.94037,6.5622 14.2303,2.1826 24.85385,4.3426 31.25067,6.5239 4.87729,1.6631 7.22513,3.3144 6.98135,4.9736"
       style="fill:none;stroke:#000000"
       id="path4916" />
    <path
       inkscape:connector-curvature="0"
       d="m 506.72454,584.66815 c -2e-5,0 -4e-5,10e-5 -7e-5,10e-5 -1.01578,1.2028 -2.02058,2.5754 -2.9276,4.0786 -1.53407,2.5425 -2.81419,5.502 -3.62417,8.6201 -0.92546,3.5627 -1.25527,7.4073 -0.92991,11.128 0.33804,3.8656 1.39644,7.6865 2.95332,11.0158 1.52948,3.2707 3.58651,6.1405 5.58235,8.2654 1.58764,1.6903 3.14107,2.9435 4.34094,3.7867"
       style="fill:none;stroke:#000000"
       id="path4918" />
    <path
       inkscape:connector-curvature="0"
       d="m 409.20727,549.95155 c 0.74748,-0.08 1.49416,-0.1599 14.22122,-1.5236 0,0 11.695,-1.276 44.00599,-4.9488 0,0 19.09457,-2.3598 51.15033,-7.0989 0,0 12.64108,-2.3344 29.41237,-6.9429 0,0 4.24064,-2.2321 4.25867,-4.471 2e-5,0 3e-5,0 4e-5,-0.01"
       style="fill:none;stroke:#000000;stroke-width:1;stroke-miterlimit:4;stroke-dasharray:24, 24;stroke-dashoffset:0"
       id="path4920" />
    <path
       inkscape:connector-curvature="0"
       d="m 548.56242,573.08415 c -0.0744,0.5062 -0.38999,1.0132 -0.94861,1.5214 -2.37607,2.1618 -9.10349,4.3059 -19.82344,6.4763 -5.91493,1.1976 -12.98231,2.3905 -21.06583,3.5863"
       style="fill:none;stroke:#000000"
       id="path4922" />
    <path
       inkscape:connector-curvature="0"
       d="m 506.72454,584.66815 c -6.47275,0.9575 -13.59702,1.9169 -21.30283,2.8821 -17.20418,2.1549 -36.97617,4.2974 -58.20757,6.4722 -16.89585,1.7307 -34.48102,3.458 -52.11215,5.2053"
       style="fill:none;stroke:#000000;stroke-width:1;stroke-miterlimit:4;stroke-dasharray:24, 24;stroke-dashoffset:0"
       id="path4924" />
    <path
       inkscape:connector-curvature="0"
       d="m 375.10199,599.22775 c -12.20745,1.2098 -24.34773,2.4205 -36.20224,3.6399 -8.9291,0.9185 -17.6556,1.8379 -26.08935,2.7615"
       style="fill:none;stroke:#000000;stroke-width:1;stroke-miterlimit:4;stroke-dasharray:24, 24;stroke-dashoffset:0"
       id="path4926" />
    <path
       inkscape:connector-curvature="0"
       d="m 213.88888,626.00885 c 0.0511,0.1381 0.11744,0.2764 0.19919,0.4149 1.32608,2.2466 6.67279,4.506 15.78796,6.8324 8.96789,2.2888 21.4128,4.5988 36.67374,6.989 14.97169,2.3449 32.36853,4.7223 51.23211,7.1998 18.42455,2.4199 37.89952,4.8888 57.32011,7.4901"
       style="fill:none;stroke:#000000"
       id="path4928" />
    <path
       inkscape:connector-curvature="0"
       d="m 312.8104,605.62915 c -2.70594,0.2964 -5.38174,0.5932 -8.02443,0.8906 -19.32427,2.1744 -36.58869,4.3462 -50.78833,6.5622 -14.04155,2.1913 -24.81476,4.3841 -31.66942,6.6269 -6.35766,2.0802 -9.22827,4.1662 -8.43934,6.3"
       style="fill:none;stroke:#000000;stroke-width:1;stroke-miterlimit:4;stroke-dasharray:24, 24;stroke-dashoffset:0"
       id="path4930" />
    <path
       inkscape:connector-curvature="0"
       d="m 375.10199,665.86715 c 15.01706,-1.5043 30.05597,-3.0192 44.58818,-4.5603"
       style="fill:none;stroke:#000000;stroke-width:1;stroke-miterlimit:4;stroke-dasharray:24, 24;stroke-dashoffset:0"
       id="path4932" />
    <path
       inkscape:connector-curvature="0"
       d="m 419.69017,661.30685 c 0.0774,-0.01 0.1547,-0.016 0.23203,-0.025 14.82242,-1.5727 28.93236,-3.1536 41.83774,-4.7592 16.54837,-2.0588 30.82551,-4.1224 42.06526,-6.2261 11.43141,-2.1396 19.49761,-4.2791 23.79619,-6.4554 1.92804,-0.9762 3.08173,-1.9515 3.46413,-2.9291"
       style="fill:none;stroke:#000000;stroke-width:1;stroke-miterlimit:4;stroke-dasharray:24, 24;stroke-dashoffset:0"
       id="path4936" />
    <path
       inkscape:connector-curvature="0"
       d="m 375.10199,699.05775 c -16.80167,-0.694 -33.52334,-1.5142 -49.24541,-2.4401 -15.85173,-0.9335 -30.37002,-1.957 -42.76853,-3.0684 -12.57398,-1.127 -22.71872,-2.3228 -29.9065,-3.595 -7.30575,-1.2931 -11.41329,-2.6402 -12.1453,-4.0558 -0.24504,-0.4738 -0.11041,-0.9523 0.39631,-1.4361"
       style="fill:none;stroke:#000000"
       id="path4938" />
    <path
       inkscape:connector-curvature="0"
       d="m 241.43256,684.46235 c 1.0339,-0.9872 3.61686,-1.9966 7.68439,-3.034 6.17357,-1.5745 15.64323,-3.1829 27.82305,-4.8484 12.41001,-1.697 27.38704,-3.4202 44.04863,-5.1962 16.97637,-1.8096 35.36566,-3.6387 54.11336,-5.5166"
       style="fill:none;stroke:#000000;stroke-width:1;stroke-miterlimit:4;stroke-dasharray:24, 24;stroke-dashoffset:0"
       id="path4940" />
  </g>
</svg>
