<?xml version="1.0" encoding="UTF-8" standalone="no"?>
<!-- Created with Inkscape (http://www.inkscape.org/) -->

<svg
   xmlns:dc="http://purl.org/dc/elements/1.1/"
   xmlns:cc="http://creativecommons.org/ns#"
   xmlns:rdf="http://www.w3.org/1999/02/22-rdf-syntax-ns#"
   xmlns:svg="http://www.w3.org/2000/svg"
   xmlns="http://www.w3.org/2000/svg"
   xmlns:sodipodi="http://sodipodi.sourceforge.net/DTD/sodipodi-0.dtd"
   xmlns:inkscape="http://www.inkscape.org/namespaces/inkscape"
   width="360"
   height="512"
   viewBox="0 0 360.00003 512.00002"
   id="svg2"
   version="1.1"
   inkscape:version="0.91 r13725"
   sodipodi:docname="geoegg.svg">
  <defs
     id="defs4">
    <marker
       style="overflow:visible"
       refY="0"
       refX="0"
       orient="auto"
       id="DistanceX">
      <path
         id="path3564"
         style="stroke:#000000;stroke-width:0.5"
         d="M 3,-3 -3,3 M 0,-5 0,5"
         inkscape:connector-curvature="0" />
    </marker>
    <pattern
       y="0"
       x="0"
       width="8"
       patternUnits="userSpaceOnUse"
       id="Hatch"
       height="8">
      <path
         id="path3567"
         stroke-width="0.25"
         stroke="#000000"
         linecap="square"
         d="M8 4 l-4,4" />
      <path
         id="path3569"
         stroke-width="0.25"
         stroke="#000000"
         linecap="square"
         d="M6 2 l-4,4" />
      <path
         id="path3571"
         stroke-width="0.25"
         stroke="#000000"
         linecap="square"
         d="M4 0 l-4,4" />
    </pattern>
    <symbol
       id="*MODEL_SPACE" />
    <symbol
       id="*PAPER_SPACE" />
    <marker
       style="overflow:visible"
       refY="0"
       refX="0"
       orient="auto"
       id="DistanceX-3">
      <path
         id="path4508"
         style="stroke:#000000;stroke-width:0.5"
         d="M 3,-3 -3,3 M 0,-5 0,5"
         inkscape:connector-curvature="0" />
    </marker>
    <pattern
       y="0"
       x="0"
       width="8"
       patternUnits="userSpaceOnUse"
       id="Hatch-0"
       height="8">
      <path
         id="path4511"
         stroke-width="0.25"
         stroke="#000000"
         linecap="square"
         d="M8 4 l-4,4" />
      <path
         id="path4513"
         stroke-width="0.25"
         stroke="#000000"
         linecap="square"
         d="M6 2 l-4,4" />
      <path
         id="path4515"
         stroke-width="0.25"
         stroke="#000000"
         linecap="square"
         d="M4 0 l-4,4" />
    </pattern>
    <symbol
       id="*MODEL_SPACE-7" />
    <symbol
       id="*PAPER_SPACE-6" />
  </defs>
  <sodipodi:namedview
     id="base"
     pagecolor="#e5ffff"
     bordercolor="#666666"
     borderopacity="1.0"
     inkscape:pageopacity="0"
     inkscape:pageshadow="2"
     inkscape:zoom="0.7"
     inkscape:cx="-168.68537"
     inkscape:cy="139.73971"
     inkscape:document-units="px"
     inkscape:current-layer="layer1"
     showgrid="true"
     inkscape:window-width="1920"
     inkscape:window-height="1151"
     inkscape:window-x="0"
     inkscape:window-y="0"
     inkscape:window-maximized="1"
     fit-margin-top="0"
     fit-margin-left="0"
     fit-margin-right="0"
     fit-margin-bottom="0"
     units="px" />
  <metadata
     id="metadata7">
    <rdf:RDF>
      <cc:Work
         rdf:about="">
        <dc:format>image/svg+xml</dc:format>
        <dc:type
           rdf:resource="http://purl.org/dc/dcmitype/StillImage" />
        <dc:title></dc:title>
      </cc:Work>
    </rdf:RDF>
  </metadata>
  <g
     inkscape:label="Layer 1"
     inkscape:groupmode="layer"
     id="layer1"
     transform="translate(-274.15738,112.17475)">
    <g
       id="g4711"
       transform="translate(0.61413067,-1.450345)">
      <path
         id="path4521"
         style="fill:none;stroke:#000000;stroke-width:8;stroke-miterlimit:4;stroke-dasharray:none"
         d="m 300.07265,39.179035 c -1.49489,3.001185 -2.90601,6.08789 -4.23453,9.241917 -7.10919,16.87781 -11.92432,35.801983 -14.70618,54.990268 -3.4682,23.92244 -3.88337,48.98863 -1.34599,72.97751 2.16636,20.48116 6.53906,40.67936 13.29305,58.78404 5.14607,13.79449 11.7568,26.56686 19.85733,36.88842 6.23618,7.94605 13.31663,14.37807 21.09943,18.51064 6.69457,3.55473 13.68493,5.28496 20.77599,5.00408 7.43954,-0.29468 14.62591,-2.7855 21.36647,-7.08833 8.5695,-5.47034 16.09879,-13.64873 22.49295,-23.32304 7.90757,-11.96409 14.09027,-26.20684 18.69097,-41.17921 6.2083,-20.20476 9.707,-42.24645 10.7727,-64.14854 1.1636,-23.91368 -0.5411,-48.34709 -5.1788,-71.167141 -3.5886,-17.657597 -9.0137,-34.716044 -16.4142,-49.555427 C 400.77202,27.544672 393.74773,17.236814 385.52307,9.438319 379.11181,3.359264 372.08094,-1.08215 364.60137,-3.35237 c -6.9454,-2.10809 -13.98842,-2.25382 -20.92442,-0.45868 -7.82596,2.02546 -15.14014,6.416802 -21.77149,12.519081 -8.13968,7.490267 -15.51809,17.793366 -21.83281,30.471004"
         inkscape:connector-curvature="0" />
      <path
         id="path4523"
         style="fill:none;stroke:#000000;stroke-width:8;stroke-miterlimit:4;stroke-dasharray:none"
         d="m 348.98873,-46.35186 c 5.19196,-3.18513 10.59128,-5.57403 16.15145,-7.05592 5.03051,-1.34072 10.14255,-1.92545 15.29304,-1.7142 9.39931,0.38552 18.56742,3.40607 27.26212,8.72565 10.3699,6.34447 19.7045,15.72864 27.84,27.02562 9.8546,13.6841 17.9173,30.108449 24.235,47.695787 9.6323,26.814394 15.8303,58.029764 17.9831,90.980493 2.2074,33.78683 0.1135,68.79746 -6.5517,101.54369 -5.2656,25.86984 -13.1703,49.26568 -23.2708,68.73793 -7.0293,13.55134 -15.437,25.80122 -25.2232,35.45411 -8.8173,8.69719 -18.6148,15.13757 -29.17091,18.368 -9.09474,2.78322 -18.38492,3.06273 -27.60759,0.7536 -10.43471,-2.61259 -20.27143,-8.40654 -29.24345,-16.61552 -9.78026,-8.94849 -18.32464,-20.56536 -25.56177,-33.6666 -10.42295,-18.86849 -18.22522,-40.93507 -23.5844,-63.933 -7.93217,-34.03943 -10.78996,-71.19758 -8.74135,-107.28443 1.95697,-34.472446 8.35368,-67.428706 18.65788,-95.635242 6.30867,-17.269263 14.35763,-33.505958 24.25892,-47.079968 7.94724,-10.89515 17.07586,-20.04391 27.27366,-26.3"
         inkscape:connector-curvature="0" />
      <path
         id="path4525"
         style="fill:none;stroke:#000000;stroke-width:8;stroke-miterlimit:4;stroke-dasharray:none"
         d="m 453.54324,-105.27405 c 0.019,0 0.037,1e-5 0.056,3e-5 11.719,0.0105 23.1715,3.30636 34.0594,9.46935 12.4425,7.043 23.7195,17.5768 33.6544,30.35736 13.2531,17.04906 24.0448,37.9681 32.4679,60.44072 11.8486,31.61175 19.2899,66.951361 22.7445,102.567614 1.526,15.733046 2.2926,31.712416 2.2926,47.714576"
         inkscape:connector-curvature="0" />
      <path
         id="path4527"
         style="fill:none;stroke:#000000;stroke-width:8;stroke-miterlimit:4;stroke-dasharray:none"
         d="m 578.81804,145.2756 c 0,28.93489 -2.5042,57.94432 -7.5575,85.70677 -6.6574,36.57576 -17.4485,69.43828 -31.5532,96.16712 -11.0035,20.85195 -23.736,37.4308 -37.6295,49.10816 -7.4629,6.27246 -15.4082,11.24817 -23.7517,14.61591 -8.0627,3.25437 -16.344,4.94416 -24.7269,4.95166 -0.019,2e-5 -0.037,2e-5 -0.056,2e-5"
         inkscape:connector-curvature="0" />
      <path
         id="path4529"
         style="fill:none;stroke:#000000"
         d="m 500.51234,39.179035 c -1.4949,3.001185 -2.906,6.08789 -4.2345,9.241917 -7.1092,16.87781 -11.9243,35.801983 -14.7062,54.990268 -3.4682,23.92244 -3.8834,48.98863 -1.346,72.97751 2.1664,20.48116 6.5391,40.67936 13.2931,58.78404 5.146,13.79449 11.7568,26.56686 19.8573,36.88842 6.2362,7.94605 13.3166,14.37807 21.0994,18.51064 6.6946,3.55473 13.685,5.28496 20.776,5.00408 7.4396,-0.29468 14.6259,-2.7855 21.3665,-7.08833 8.5695,-5.47034 16.0988,-13.64873 22.4929,-23.32304 7.9076,-11.96409 14.0904,-26.20684 18.691,-41.17921 6.2084,-20.20476 9.707,-42.24645 10.7727,-64.14854 1.1637,-23.91368 -0.5411,-48.34709 -5.1788,-71.167141 -3.5886,-17.657597 -9.0137,-34.716044 -16.4142,-49.555427 -5.7698,-11.56955 -12.7941,-21.877408 -21.0188,-29.675903 -6.4112,-6.079055 -13.4421,-10.520469 -20.9216,-12.790689 -6.9455,-2.10809 -13.9885,-2.25382 -20.9245,-0.45868 -7.8259,2.02546 -15.1401,6.416802 -21.7715,12.519081 -8.1396,7.490267 -15.5181,17.793366 -21.8328,30.471004"
         inkscape:connector-curvature="0" />
      <path
         id="path4531"
         style="fill:none;stroke:#000000;stroke-width:8;stroke-miterlimit:4;stroke-dasharray:none"
         d="m 378.37846,-78.82295 c -2.27708,1.0184 -4.53082,2.17209 -6.75816,3.45668 -7.44067,4.2913 -14.43513,9.9547 -20.92528,16.66688 -8.37829,8.66492 -15.85675,19.00962 -22.42555,30.3872"
         inkscape:connector-curvature="0" />
      <path
         id="path4533"
         style="fill:none;stroke:#000000"
         d="m 328.26947,-28.31219 c -1.00447,1.73982 -1.98768,3.50379 -2.94957,5.2896 -12.98839,24.11356 -22.98778,53.835136 -29.26367,86.98549 -7.49597,39.59509 -9.28404,82.02415 -5.56044,122.68384 3.51318,38.36195 11.83438,74.21223 24.18399,104.30778 4.01062,9.77372 8.53753,19.15916 13.58688,27.9056"
         inkscape:connector-curvature="0" />
      <path
         id="path4535"
         style="fill:none;stroke:#000000;stroke-width:8;stroke-miterlimit:4;stroke-dasharray:none"
         d="m 378.3785,369.37427 c 7.08184,3.16734 14.40725,5.03377 21.88859,5.44654 11.12745,0.61395 22.05775,-2.01868 32.47975,-7.52274 9.6506,-5.09666 18.5737,-12.49666 26.6554,-21.52056 10.0063,-11.17276 18.6463,-24.7388 25.9242,-39.55099 12.9146,-26.28437 22.4538,-58.31446 27.8611,-93.51837 6.0983,-39.70294 6.6717,-81.77621 1.8009,-121.773059 -4.5122,-37.05242 -13.5414,-71.16845 -26.2828,-99.430851 -7.3204,-16.23788 -16.1625,-31.18678 -26.5368,-43.53967 -7.8389,-9.33397 -16.5178,-17.13679 -25.933,-22.75051 -10.2096,-6.0874 -20.9877,-9.41898 -32.0392,-9.56593 -8.81973,-0.11728 -17.47568,1.79784 -25.81818,5.52892"
         inkscape:connector-curvature="0" />
      <path
         id="path4537"
         style="fill:none;stroke:#000000;stroke-width:8;stroke-miterlimit:4;stroke-dasharray:none"
         d="m 328.26666,318.86012 c 4.19749,7.27086 8.756,14.10014 13.67906,20.34383 7.64064,9.69027 16.13968,17.93622 25.40766,24.07178 3.59817,2.38205 7.27754,4.42245 11.02512,6.09854"
         inkscape:connector-curvature="0" />
      <path
         id="path4539"
         style="fill:none;stroke:#000000;stroke-width:8;stroke-miterlimit:4;stroke-dasharray:none"
         d="m 378.37846,-78.82295 c 1.09817,-0.98222 2.20851,-1.93657 3.33089,-2.8619 2.39588,-1.97527 4.84518,-3.81704 7.34553,-5.51352 7.03207,-4.77126 14.38586,-8.33721 21.97966,-10.51901 5.7754,-1.65934 11.608,-2.49452 17.4535,-2.49454"
         inkscape:connector-curvature="0" />
      <path
         id="path4541"
         style="fill:none;stroke:#000000;stroke-width:8;stroke-miterlimit:4;stroke-dasharray:none"
         d="m 428.48804,-100.21192 c 1.4759,0 2.9525,0.0532 4.4293,0.15987 6.2022,0.4479 12.3094,1.83065 18.2746,4.07615 7.2486,2.72859 14.1876,6.69246 20.762,11.67127 7.6876,5.82187 14.8043,12.97487 21.3187,21.07112 14.2778,17.74457 26.5375,41.11048 36.063,68.568476 12.2002,35.168022 19.544,75.93752 21.4185,118.299684 1.8069,40.83241 -1.4985,82.60716 -10.0899,121.29199 -6.8669,30.91995 -16.7982,58.46789 -29.1508,81.1566 -8.2074,15.07507 -17.814,28.59598 -28.7605,39.38657 -6.1569,6.06927 -12.7015,11.23631 -19.5844,15.29092 -8.4827,4.997 -17.3409,8.22232 -26.4282,9.44698 -6.9611,0.9381 -13.9176,0.68331 -20.7954,-0.72978 -8.1757,-1.67976 -16.07466,-4.96081 -23.60468,-9.60182 -4.85334,-2.99127 -9.5111,-6.52094 -13.96176,-10.50184"
         inkscape:connector-curvature="0" />
      <path
         id="path4543"
         style="fill:none;stroke:#000000"
         d="m 353.32209,339.35024 c -3.76056,-5.82673 -7.2742,-11.97092 -10.54128,-18.34464 -13.87375,-27.06614 -24.2892,-60.16514 -30.49973,-96.68782 -7.21811,-42.44806 -8.41366,-87.55214 -3.80917,-130.504803 3.89164,-36.302927 11.82277,-70.198412 23.15052,-99.309227 7.28244,-18.71487 16.2567,-36.1778 26.95283,-51.00228 6.06346,-8.40375 12.67707,-15.95072 19.8032,-22.32442"
         inkscape:connector-curvature="0" />
      <path
         id="path4545"
         style="fill:none;stroke:#000000"
         d="m 378.3785,369.37427 c -1.96238,-1.75526 -3.88451,-3.59824 -5.76538,-5.52149 -7.02581,-7.18406 -13.45569,-15.4611 -19.29103,-24.50254"
         inkscape:connector-curvature="0" />
      <path
         id="path4547"
         style="fill:none;stroke:#000000"
         d="m 328.26842,145.2756 c 0,-16.00216 0.76664,-31.98153 2.29267,-47.714576 3.45459,-35.616253 10.89591,-70.955864 22.74445,-102.567614 8.42306,-22.47262 19.21485,-43.39166 32.46791,-60.44072 9.93495,-12.78056 21.21189,-23.31436 33.65439,-30.35736 2.9798,-1.68669 6.0019,-3.15863 9.0602,-4.40725"
         inkscape:connector-curvature="0" />
      <path
         id="path4549"
         style="fill:none;stroke:#000000;stroke-width:8;stroke-miterlimit:4;stroke-dasharray:none"
         d="m 428.48804,-100.21192 c 8.1163,-3.3137 16.4875,-5.05449 24.9992,-5.0621 0.019,-2e-5 0.037,-3e-5 0.056,-3e-5"
         inkscape:connector-curvature="0" />
      <path
         id="path4551"
         style="fill:none;stroke:#000000;stroke-width:8;stroke-miterlimit:4;stroke-dasharray:none"
         d="m 453.54324,395.82524 c -0.019,0 -0.037,0 -0.056,-2e-5 -8.3829,-0.007 -16.6642,-1.69729 -24.7269,-4.95166 -0.091,-0.0366 -0.1814,-0.0734 -0.272,-0.11043"
         inkscape:connector-curvature="0" />
      <path
         id="path4553"
         style="fill:none;stroke:#000000"
         d="m 428.48834,390.76313 c -8.2443,-3.36567 -16.098,-8.30122 -23.4797,-14.50548 -13.89346,-11.67736 -26.62601,-28.25621 -37.6295,-49.10816 -14.10471,-26.72884 -24.89577,-59.59136 -31.55322,-96.16712 -5.05327,-27.76245 -7.5575,-56.77187 -7.5575,-85.70677"
         inkscape:connector-curvature="0" />
      <path
         id="path4555"
         style="fill:none;stroke:#000000"
         d="m 428.48834,-78.82287 c 1.0982,-0.98224 2.2085,-1.93662 3.3309,-2.86198 2.3959,-1.97527 4.8452,-3.81704 7.3456,-5.51352 4.6595,-3.16148 9.4602,-5.79376 14.3784,-7.84482"
         inkscape:connector-curvature="0" />
      <path
         id="path4557"
         style="fill:none;stroke:#000000"
         d="m 453.54324,-95.04319 c 2.5044,-1.04438 5.0391,-1.93807 7.6012,-2.67419 5.7756,-1.65938 11.6084,-2.49456 17.454,-2.49454"
         inkscape:connector-curvature="0" />
      <path
         id="path4559"
         style="fill:none;stroke:#000000;stroke-width:8;stroke-miterlimit:4;stroke-dasharray:none"
         d="m 478.59844,-100.21192 c 1.4757,1e-5 2.9522,0.0532 4.4288,0.15987 6.2023,0.4479 12.3095,1.83065 18.2747,4.07615 7.2485,2.72859 14.1875,6.69246 20.7619,11.67127 2.2647,1.7151 4.4799,3.54573 6.6448,5.48196"
         inkscape:connector-curvature="0" />
      <path
         id="path4561"
         style="fill:none;stroke:#000000;stroke-width:8;stroke-miterlimit:4;stroke-dasharray:none"
         d="m 528.70864,-78.82267 c 5.1836,4.63627 10.0786,9.87804 14.674,15.58916 14.2777,17.74457 26.5374,41.11048 36.0629,68.568476 12.2002,35.168022 19.544,75.93752 21.4186,118.299684 1.8068,40.83241 -1.4986,82.60716 -10.09,121.29199 -6.8669,30.91995 -16.7982,58.46789 -29.1508,81.1566 -8.2074,15.07507 -17.814,28.59598 -28.7604,39.38657 -1.3661,1.34661 -2.7512,2.64881 -4.1549,3.90429"
         inkscape:connector-curvature="0" />
      <path
         id="path4563"
         style="fill:none;stroke:#000000"
         d="m 478.59814,390.76313 c -4.1989,0 -8.3855,-0.43095 -12.5433,-1.2852 -8.1756,-1.67976 -16.0746,-4.96081 -23.6047,-9.60182 -6.9932,-4.31019 -13.5804,-9.73821 -19.7271,-16.02333 -11.5536,-11.8138 -21.4956,-26.58324 -29.83231,-42.84718 -13.87374,-27.06614 -24.28919,-60.16514 -30.49972,-96.68782 -7.21812,-42.44806 -8.41366,-87.55214 -3.80917,-130.504803 3.89164,-36.302927 11.82276,-70.198412 23.15052,-99.309227 7.28243,-18.71487 16.2567,-36.1778 26.95288,-51.00228 6.0634,-8.40372 12.677,-15.95065 19.8031,-22.32434"
         inkscape:connector-curvature="0" />
      <path
         id="path4565"
         style="fill:none;stroke:#000000;stroke-width:8;stroke-miterlimit:4;stroke-dasharray:none"
         d="m 528.70804,369.3741 c -4.9229,4.40308 -10.0738,8.23163 -15.4296,11.38663 -8.4826,4.997 -17.3408,8.22232 -26.4282,9.44698 -2.7529,0.37099 -5.5052,0.55542 -8.2521,0.55542"
         inkscape:connector-curvature="0" />
      <path
         id="path4567"
         style="fill:none;stroke:#000000"
         d="m 478.59834,-78.82296 c -2.2771,1.0184 -4.5308,2.1721 -6.7582,3.45669 -6.4465,3.71791 -12.558,8.46575 -18.2968,14.03325"
         inkscape:connector-curvature="0" />
      <path
         id="path4569"
         style="fill:none;stroke:#000000"
         d="m 528.70864,-78.82267 c -7.8603,-3.51547 -15.9993,-5.41893 -24.2921,-5.5292 -8.8198,-0.11728 -17.4757,1.79783 -25.8182,5.52891"
         inkscape:connector-curvature="0" />
      <path
         id="path4571"
         style="fill:none;stroke:#000000;stroke-width:8;stroke-miterlimit:4;stroke-dasharray:none"
         d="m 578.81954,-28.30855 c -4.968,-8.60596 -10.4443,-16.59864 -16.4308,-23.72688 -7.8389,-9.33397 -16.5179,-17.13679 -25.933,-22.75051 -2.5485,-1.51951 -5.1324,-2.86731 -7.7471,-4.03673"
         inkscape:connector-curvature="0" />
      <path
         id="path4573"
         style="fill:none;stroke:#000000"
         d="m 453.54334,-61.33302 c -0.8851,0.85864 -1.7613,1.73678 -2.6285,2.63363 -9.6594,9.98993 -18.1228,22.21264 -25.3751,35.6768 -12.9884,24.11356 -22.9878,53.835136 -29.26365,86.98549 -7.49597,39.59509 -9.28404,82.02415 -5.56044,122.68384 3.51318,38.36195 11.83439,74.21223 24.18399,104.30778 7.3446,17.89856 16.4207,34.49494 27.2659,48.24943 7.6407,9.69027 16.1397,17.93622 25.4077,24.07178 10.3977,6.88345 21.4734,10.91387 32.9137,11.54508 9.6215,0.53086 19.0955,-1.36555 28.2211,-5.44671"
         inkscape:connector-curvature="0" />
      <path
         id="path4575"
         style="fill:none;stroke:#000000;stroke-width:8;stroke-miterlimit:4;stroke-dasharray:none"
         d="m 578.81704,318.86388 c 2.3594,-4.08696 4.6025,-8.30896 6.7292,-12.63736 12.9147,-26.28437 22.4539,-58.31446 27.8612,-93.51837 6.0983,-39.70294 6.6717,-81.77621 1.8009,-121.773059 -4.5122,-37.05242 -13.5415,-71.16845 -26.2828,-99.430851 -3.0962,-6.86781 -6.4646,-13.50503 -10.106,-19.81279"
         inkscape:connector-curvature="0" />
      <path
         id="path4577"
         style="fill:none;stroke:#000000;stroke-width:8;stroke-miterlimit:4;stroke-dasharray:none"
         d="m 528.70804,369.3741 c 1.4283,-0.6388 2.8481,-1.33112 4.2587,-2.07603 9.6506,-5.09666 18.5736,-12.49666 26.6554,-21.52056 7.0822,-7.90787 13.48,-17.01465 19.1949,-26.91363"
         inkscape:connector-curvature="0" />
      <path
         id="path4579"
         style="fill:none;stroke:#000000"
         d="m 478.59824,-28.31105 c 6.2987,-7.27421 13.2204,-13.4398 20.7203,-18.04081 1.4295,-0.87696 2.8747,-1.69355 4.3346,-2.44748"
         inkscape:connector-curvature="0" />
      <path
         id="path4581"
         style="fill:none;stroke:#000000"
         d="m 503.65314,-48.79934 c 3.8427,-1.98436 7.7875,-3.53456 11.8168,-4.60844 5.0305,-1.34072 10.1426,-1.92545 15.2931,-1.7142 9.3993,0.38552 18.5674,3.40607 27.2621,8.72565 7.4926,4.58407 14.4446,10.75502 20.7944,18.08778"
         inkscape:connector-curvature="0" />
      <path
         id="path4583"
         style="fill:none;stroke:#000000"
         d="m 578.81704,318.86388 c -1.8699,2.15859 -3.7964,4.22133 -5.7795,6.17742 -8.8173,8.69719 -18.6148,15.13757 -29.1709,18.368 -9.0948,2.78322 -18.3849,3.06273 -27.6076,0.7536 -10.4347,-2.61259 -20.2714,-8.40654 -29.2435,-16.61552 -9.7802,-8.94849 -18.3246,-20.56536 -25.5617,-33.6666 -10.423,-18.86849 -18.2253,-40.93507 -23.5844,-63.933 -7.9322,-34.03943 -10.79,-71.19758 -8.7414,-107.28443 1.957,-34.472446 8.3537,-67.428706 18.6579,-95.635242 6.3087,-17.269263 14.3576,-33.505958 24.2589,-47.079968 2.1025,-2.88237 4.2877,-5.64251 6.5534,-8.25919"
         inkscape:connector-curvature="0" />
      <path
         id="path4585"
         style="fill:none;stroke:#000000;stroke-width:8;stroke-miterlimit:4;stroke-dasharray:none"
         d="m 578.81954,-28.30855 c 2.4385,2.81597 4.7882,5.80327 7.0456,8.93784 9.8546,13.6841 17.9173,30.108449 24.235,47.695787 9.6323,26.814394 15.8303,58.029764 17.9831,90.980493 2.2074,33.78683 0.1135,68.79746 -6.5517,101.54369 -5.2656,25.86984 -13.1703,49.26568 -23.2708,68.73793 -5.6049,10.80525 -12.0861,20.78307 -19.4437,29.27669"
         inkscape:connector-curvature="0" />
    </g>
  </g>
</svg>
